<?xml version="1.0" encoding="UTF-8" standalone="no"?>
<svg
   xmlns:svg="http://www.w3.org/2000/svg"
   xmlns="http://www.w3.org/2000/svg"
   version="1.2"
   width="100"
   height="100">
  <g
     transform="translate(0,-952.36218)">
    <rect
       width="99.009903"
       height="99.009903"
       x="0.49504951"
       y="952.85724"
       style="fill:#4b4b55;fill-opacity:1;fill-rule:evenodd;" />
    <g
       transform="matrix(1.7085646,0,0,1.7085646,-16.112907,918.14871)"
       style="fill:#f9f9f9;fill-opacity:1;">
      <path
         d="m 30.59625,39.4825 c 1.213321,2.1e-5 2.33332,0.206687 3.36,0.62 1.026651,0.40002 1.913317,0.986686 2.66,1.76 0.746649,0.760017 1.326648,1.706683 1.74,2.84 0.426648,1.120014 0.639981,2.400013 0.64,3.84 -1.9e-5,0.560011 -0.06002,0.933344 -0.18,1.12 -0.120019,0.186677 -0.346685,0.28001 -0.68,0.28 l -13.48,0 c 0.02666,1.280009 0.199995,2.393341 0.52,3.34 0.319994,0.946673 0.759994,1.740005 1.32,2.38 0.559993,0.62667 1.226659,1.100003 2,1.42 0.773324,0.306669 1.63999,0.460003 2.6,0.46 0.893321,3e-6 1.659987,-0.1 2.3,-0.3 0.653319,-0.21333 1.213318,-0.439997 1.68,-0.68 0.466651,-0.239996 0.853317,-0.459996 1.16,-0.66 0.319983,-0.213329 0.593316,-0.319996 0.82,-0.32 0.293316,4e-6 0.519982,0.113338 0.68,0.34 l 1,1.3 c -0.440019,0.533336 -0.966685,1.000002 -1.58,1.4 -0.61335,0.386668 -1.27335,0.706667 -1.98,0.96 -0.693348,0.253334 -1.413347,0.44 -2.16,0.56 -0.746679,0.133333 -1.486679,0.2 -2.22,0.2 -1.40001,0 -2.693342,-0.233333 -3.88,-0.7 -1.173339,-0.479999 -2.193338,-1.173332 -3.06,-2.08 -0.853337,-0.919997 -1.520003,-2.053329 -2,-3.4 -0.480002,-1.346659 -0.720001,-2.893325 -0.72,-4.64 -1e-6,-1.413321 0.213332,-2.73332 0.64,-3.96 0.439997,-1.226651 1.066663,-2.28665 1.88,-3.18 0.813329,-0.906648 1.806661,-1.613314 2.98,-2.12 1.173325,-0.51998 2.493324,-0.779979 3.96,-0.78 m 0.08,2.62 c -1.720009,1.8e-5 -3.073341,0.500017 -4.06,1.5 -0.986673,0.986682 -1.600005,2.360014 -1.84,4.12 l 11.02,0 c -1.6e-5,-0.826654 -0.113349,-1.579986 -0.34,-2.26 -0.226682,-0.693318 -0.560015,-1.286651 -1,-1.78 -0.440014,-0.50665 -0.980014,-0.893316 -1.62,-1.16 -0.626679,-0.279982 -1.346679,-0.419982 -2.16,-0.42"
        />
      <path
         d="m 55.11375,43.1425 c -0.160014,0.29335 -0.406681,0.440016 -0.74,0.44 -0.200014,1.6e-5 -0.42668,-0.07332 -0.68,-0.22 -0.253346,-0.14665 -0.566679,-0.30665 -0.94,-0.48 -0.360012,-0.186649 -0.793345,-0.353316 -1.3,-0.5 -0.506677,-0.159982 -1.106676,-0.239982 -1.8,-0.24 -0.600008,1.8e-5 -1.140008,0.08002 -1.62,0.24 -0.480007,0.146684 -0.89334,0.353351 -1.24,0.62 -0.333339,0.266683 -0.593339,0.580016 -0.78,0.94 -0.173339,0.346682 -0.260005,0.726682 -0.26,1.14 -5e-6,0.520014 0.146661,0.953347 0.44,1.3 0.306661,0.34668 0.70666,0.64668 1.2,0.9 0.493326,0.253346 1.053325,0.480012 1.68,0.68 0.626658,0.186679 1.266657,0.393345 1.92,0.62 0.666656,0.213345 1.313322,0.453344 1.94,0.72 0.626654,0.266677 1.186653,0.60001 1.68,1 0.493319,0.400009 0.886652,0.893342 1.18,1.48 0.306651,0.573341 0.459984,1.266674 0.46,2.08 -1.6e-5,0.933339 -0.166682,1.800004 -0.5,2.6 -0.333348,0.786669 -0.826681,1.473335 -1.48,2.06 -0.653346,0.573334 -1.453346,1.026667 -2.4,1.36 -0.946677,0.333333 -2.040009,0.5 -3.28,0.5 -1.41334,0 -2.693339,-0.226667 -3.84,-0.68 -1.14667,-0.466666 -2.120002,-1.059999 -2.92,-1.78 l 0.84,-1.36 c 0.106664,-0.17333 0.233331,-0.306663 0.38,-0.4 0.146664,-0.09333 0.339997,-0.139996 0.58,-0.14 0.239997,4e-6 0.49333,0.09334 0.76,0.28 0.266663,0.18667 0.586662,0.393337 0.96,0.62 0.386662,0.22667 0.846661,0.433336 1.38,0.62 0.54666,0.186669 1.226659,0.280002 2.04,0.28 0.693324,2e-6 1.299991,-0.08666 1.82,-0.26 0.519989,-0.186664 0.953322,-0.43333 1.3,-0.74 0.346655,-0.306663 0.599988,-0.659996 0.76,-1.06 0.173321,-0.399995 0.259988,-0.826662 0.26,-1.28 -1.2e-5,-0.559994 -0.153346,-1.019993 -0.46,-1.38 -0.293345,-0.373326 -0.686678,-0.686659 -1.18,-0.94 -0.493344,-0.266658 -1.06001,-0.493325 -1.7,-0.68 -0.626675,-0.199991 -1.273341,-0.406658 -1.94,-0.62 -0.65334,-0.213324 -1.300006,-0.453324 -1.94,-0.72 -0.626671,-0.27999 -1.186671,-0.626656 -1.68,-1.04 -0.493336,-0.413322 -0.893336,-0.919988 -1.2,-1.52 -0.293335,-0.61332 -0.440002,-1.35332 -0.44,-2.22 -2e-6,-0.773318 0.159998,-1.513317 0.48,-2.22 0.319997,-0.719982 0.786664,-1.346648 1.4,-1.88 0.613329,-0.546647 1.366662,-0.97998 2.26,-1.3 0.893327,-0.31998 1.913325,-0.479979 3.06,-0.48 1.333323,2.1e-5 2.526655,0.213354 3.58,0.64 1.066653,0.413353 1.986652,0.986686 2.76,1.72 l -0.8,1.3"
         />
    </g>
  </g>
</svg>
